HIERARCHY
ROOT hips
{
	OFFSET -0.003675 0.299928 -0.021708
	CHANNELS 6 Xposition Yposition Zposition Xrotation Yrotation Zrotation
	JOINT LowerBack
	{
		OFFSET 0.000919 0.177588 0.009275
		CHANNELS 3 Xrotation Yrotation Zrotation
		JOINT spine
		{
			OFFSET 0.000919 0.177588 0.009275
			CHANNELS 3 Xrotation Yrotation Zrotation
			JOINT chest
			{
				OFFSET 0.000456 0.100015 0.004638
				CHANNELS 3 Xrotation Yrotation Zrotation
				JOINT neck
				{
					OFFSET 0.000456 0.100015 0.004638
					CHANNELS 3 Xrotation Yrotation Zrotation
					JOINT head
					{
						OFFSET 0.000924 0.155147 0.009274
						CHANNELS 6 Xposition Yposition Zposition Xrotation Yrotation Zrotation
						End Site
						{
							OFFSET 0.000000 0.153400 0.000000
						}
					}
				}
				JOINT shoulder.L
				{
					OFFSET 0.019937 0.078966 0.057518
					CHANNELS 6 Xposition Yposition Zposition Yrotation Xrotation Zrotation
					JOINT upper_arm.L
					{
						OFFSET 0.177024 -0.020465 -0.095062
						CHANNELS 6 Xposition Yposition Zposition Xrotation Yrotation Zrotation
						JOINT forearm.L
						{
							OFFSET 0.247100 -0.135500 -0.061800
							CHANNELS 3 Xrotation Yrotation Zrotation
							JOINT hand.L
							{
								OFFSET 0.217000 -0.143000 0.039300
								CHANNELS 3 Xrotation Yrotation Zrotation
								JOINT palm.01.L
								{
									OFFSET 0.021770 -0.038291 0.012954
									CHANNELS 6 Xposition Yposition Zposition Yrotation Xrotation Zrotation
									JOINT f_index.01.L
									{
										OFFSET 0.053215 -0.044137 0.008236
										CHANNELS 3 Xrotation Yrotation Zrotation
										JOINT f_index.02.L
										{
											OFFSET 0.036108 -0.024723 -0.010656
											CHANNELS 3 Xrotation Yrotation Zrotation
											JOINT f_index.03.L
											{
												OFFSET 0.021342 -0.014948 -0.010846
												CHANNELS 3 Xrotation Yrotation Zrotation
												End Site
												{
													OFFSET 0.015600 -0.009860 -0.013421
												}
											}
										}
									}
									JOINT thumb.01.L
									{
										OFFSET -0.009090 -0.002348 -0.024223
										CHANNELS 6 Xposition Yposition Zposition Xrotation Yrotation Zrotation
										JOINT thumb.02.L
										{
											OFFSET 0.019713 -0.035076 -0.011120
											CHANNELS 3 Xrotation Yrotation Zrotation
											JOINT thumb.03.L
											{
												OFFSET 0.024877 -0.021748 -0.005176
												CHANNELS 3 Xrotation Yrotation Zrotation
												End Site
												{
													OFFSET 0.016125 -0.013029 -0.001569
												}
											}
										}
									}
								}
								JOINT palm.02.L
								{
									OFFSET 0.032823 -0.025104 0.012281
									CHANNELS 6 Xposition Yposition Zposition Yrotation Xrotation Zrotation
									JOINT f_middle.01.L
									{
										OFFSET 0.055723 -0.038469 0.008037
										CHANNELS 3 Xrotation Yrotation Zrotation
										JOINT f_middle.02.L
										{
											OFFSET 0.038167 -0.027473 -0.015582
											CHANNELS 3 Xrotation Yrotation Zrotation
											JOINT f_middle.03.L
											{
												OFFSET 0.021707 -0.016587 -0.017037
												CHANNELS 3 Xrotation Yrotation Zrotation
												End Site
												{
													OFFSET 0.014112 -0.010584 -0.014294
												}
											}
										}
									}
								}
								JOINT palm.03.L
								{
									OFFSET 0.039230 -0.011402 0.008390
									CHANNELS 6 Xposition Yposition Zposition Yrotation Xrotation Zrotation
									JOINT f_ring.01.L
									{
										OFFSET 0.061796 -0.031470 0.007910
										CHANNELS 3 Xrotation Yrotation Zrotation
										JOINT f_ring.02.L
										{
											OFFSET 0.033092 -0.023401 -0.019127
											CHANNELS 3 Xrotation Yrotation Zrotation
											JOINT f_ring.03.L
											{
												OFFSET 0.021392 -0.015362 -0.017824
												CHANNELS 3 Xrotation Yrotation Zrotation
												End Site
												{
													OFFSET 0.008670 -0.007297 -0.014686
												}
											}
										}
									}
								}
								JOINT palm.04.L
								{
									OFFSET 0.043417 0.002450 0.002889
									CHANNELS 6 Xposition Yposition Zposition Yrotation Xrotation Zrotation
									JOINT f_pinky.01.L
									{
										OFFSET 0.069986 -0.026156 0.003627
										CHANNELS 3 Xrotation Yrotation Zrotation
										JOINT f_pinky.02.L
										{
											OFFSET 0.018520 -0.012813 -0.016429
											CHANNELS 3 Xrotation Yrotation Zrotation
											JOINT f_pinky.03.L
											{
												OFFSET 0.013822 -0.009796 -0.014947
												CHANNELS 3 Xrotation Yrotation Zrotation
												End Site
												{
													OFFSET 0.007238 -0.006103 -0.011657
												}
											}
										}
									}
								}
							}
						}
					}
				}
				JOINT shoulder.R
				{
					OFFSET -0.016662 0.078957 0.057696
					CHANNELS 6 Xposition Yposition Zposition Yrotation Xrotation Zrotation
					JOINT upper_arm.R
					{
						OFFSET -0.176972 -0.020537 -0.095144
						CHANNELS 6 Xposition Yposition Zposition Xrotation Yrotation Zrotation
						JOINT forearm.R
						{
							OFFSET -0.247100 -0.135500 -0.061800
							CHANNELS 3 Xrotation Yrotation Zrotation
							JOINT hand.R
							{
								OFFSET -0.217000 -0.143000 0.039300
								CHANNELS 3 Xrotation Yrotation Zrotation
								JOINT palm.01.R
								{
									OFFSET -0.021773 -0.038278 0.012988
									CHANNELS 6 Xposition Yposition Zposition Yrotation Xrotation Zrotation
									JOINT f_index.01.R
									{
										OFFSET -0.053212 -0.044139 0.008249
										CHANNELS 3 Xrotation Yrotation Zrotation
										JOINT f_index.02.R
										{
											OFFSET -0.036049 -0.024835 -0.010634
											CHANNELS 3 Xrotation Yrotation Zrotation
											JOINT f_index.03.R
											{
												OFFSET -0.021371 -0.014881 -0.010866
												CHANNELS 3 Xrotation Yrotation Zrotation
												End Site
												{
													OFFSET -0.015584 -0.009883 -0.013422
												}
											}
										}
									}
									JOINT thumb.01.R
									{
										OFFSET 0.009113 -0.002381 -0.024211
										CHANNELS 6 Xposition Yposition Zposition Xrotation Yrotation Zrotation
										JOINT thumb.02.R
										{
											OFFSET -0.019694 -0.035097 -0.011088
											CHANNELS 3 Xrotation Yrotation Zrotation
											JOINT thumb.03.R
											{
												OFFSET -0.024867 -0.021762 -0.005168
												CHANNELS 3 Xrotation Yrotation Zrotation
												End Site
												{
													OFFSET -0.016120 -0.013036 -0.001565
												}
											}
										}
									}
								}
								JOINT palm.02.R
								{
									OFFSET -0.032828 -0.025095 0.012286
									CHANNELS 6 Xposition Yposition Zposition Yrotation Xrotation Zrotation
									JOINT f_middle.01.R
									{
										OFFSET -0.055721 -0.038472 0.008040
										CHANNELS 3 Xrotation Yrotation Zrotation
										JOINT f_middle.02.R
										{
											OFFSET -0.038101 -0.027593 -0.015557
											CHANNELS 3 Xrotation Yrotation Zrotation
											JOINT f_middle.03.R
											{
												OFFSET -0.021730 -0.016530 -0.017054
												CHANNELS 3 Xrotation Yrotation Zrotation
												End Site
												{
													OFFSET -0.014096 -0.010608 -0.014293
												}
											}
										}
									}
								}
								JOINT palm.03.R
								{
									OFFSET -0.039192 -0.011488 0.008390
									CHANNELS 6 Xposition Yposition Zposition Yrotation Xrotation Zrotation
									JOINT f_ring.01.R
									{
										OFFSET -0.061839 -0.031387 0.007876
										CHANNELS 3 Xrotation Yrotation Zrotation
										JOINT f_ring.02.R
										{
											OFFSET -0.033068 -0.023437 -0.019125
											CHANNELS 3 Xrotation Yrotation Zrotation
											JOINT f_ring.03.R
											{
												OFFSET -0.021371 -0.015393 -0.017822
												CHANNELS 3 Xrotation Yrotation Zrotation
												End Site
												{
													OFFSET -0.008654 -0.007321 -0.014684
												}
											}
										}
									}
								}
								JOINT palm.04.R
								{
									OFFSET -0.043421 0.002443 0.002845
									CHANNELS 6 Xposition Yposition Zposition Yrotation Xrotation Zrotation
									JOINT f_pinky.01.R
									{
										OFFSET -0.069983 -0.026169 0.003599
										CHANNELS 3 Xrotation Yrotation Zrotation
										JOINT f_pinky.02.R
										{
											OFFSET -0.018501 -0.012842 -0.016428
											CHANNELS 3 Xrotation Yrotation Zrotation
											JOINT f_pinky.03.R
											{
												OFFSET -0.013806 -0.009821 -0.014946
												CHANNELS 3 Xrotation Yrotation Zrotation
												End Site
												{
													OFFSET -0.007226 -0.006121 -0.011655
												}
											}
										}
									}
								}
							}
						}
					}
				}
			}
		}
	}
	JOINT pelvis.L
	{
		OFFSET 0.000000 0.000000 0.000000
		CHANNELS 6 Xposition Yposition Zposition Xrotation Yrotation Zrotation
		JOINT thigh.L
		{
			OFFSET 0.101675 0.001054 -0.000000
			CHANNELS 3 Xrotation Yrotation Zrotation
			JOINT shin.L
			{
				OFFSET 0.000000 -0.534800 0.041000
				CHANNELS 3 Xrotation Yrotation Zrotation
				JOINT foot.L
				{
					OFFSET 0.000000 -0.452000 -0.044800
					CHANNELS 3 Xrotation Yrotation Zrotation
					JOINT toe.L
					{
						OFFSET -0.000000 -0.068500 0.109600
						CHANNELS 3 Xrotation Yrotation Zrotation
						End Site
						{
							OFFSET -0.000000 0.000000 0.067200
						}
					}
				}
				JOINT heel.L
				{
					OFFSET 0.000000 -0.452000 -0.044800
					CHANNELS 3 Xrotation Yrotation Zrotation
					JOINT heel.02.L
					{
						OFFSET -0.038000 -0.085200 0.016200
						CHANNELS 6 Xposition Yposition Zposition Xrotation Yrotation Zrotation
						End Site
						{
							OFFSET 0.080000 -0.000000 0.000000
						}
					}
				}
			}
		}
	}
	JOINT pelvis.R
	{
		OFFSET 0.000000 0.000000 0.000000
		CHANNELS 6 Xposition Yposition Zposition Xrotation Yrotation Zrotation
		JOINT thigh.R
		{
			OFFSET -0.094325 0.001054 0.000000
			CHANNELS 3 Xrotation Yrotation Zrotation
			JOINT shin.R
			{
				OFFSET 0.000000 -0.534800 0.041000
				CHANNELS 3 Xrotation Yrotation Zrotation
				JOINT foot.R
				{
					OFFSET 0.000000 -0.452000 -0.044800
					CHANNELS 3 Xrotation Yrotation Zrotation
					JOINT toe.R
					{
						OFFSET -0.000000 -0.068500 0.109600
						CHANNELS 3 Xrotation Yrotation Zrotation
						End Site
						{
							OFFSET -0.000000 0.000000 0.067200
						}
					}
				}
				JOINT heel.R
				{
					OFFSET 0.000000 -0.452000 -0.044800
					CHANNELS 3 Xrotation Yrotation Zrotation
					JOINT heel.02.R
					{
						OFFSET 0.038000 -0.085200 0.016200
						CHANNELS 6 Xposition Yposition Zposition Xrotation Yrotation Zrotation
						End Site
						{
							OFFSET -0.080000 0.000000 -0.000000
						}
					}
				}
			}
		}
	}
}
MOTION
Frames: 4
Frame Time: 0.041667
-0.003166 0.276109 -0.016938 12.034204 60.788738 -10.649384 -0.000000 -0.000001 0.000000 0.000000 0.000000 0.000000 0.000000 0.000000 -0.000000 0.000001 -0.000001 0.000000 0.000924 0.155148 0.009274 21.667061 -0.023138 8.288425 0.019937 0.078966 0.057518 5.320889 6.082735 34.091708 0.177025 -0.020466 -0.095062 6.065394 14.038107 -50.145825 -39.793102 8.036150 -86.070759 -0.000002 -0.000002 0.000002 0.021770 -0.038291 0.012954 -0.000001 -0.000000 -0.000002 -0.000001 0.000002 0.000005 -0.000000 0.000001 0.000005 -0.000000 -0.000000 -0.000003 -0.009090 -0.002348 -0.024223 0.000002 -0.000001 0.000002 0.000000 -0.000000 0.000001 -0.000001 -0.000000 -0.000006 0.032823 -0.025104 0.012281 -0.000003 -0.000000 0.000004 -0.000000 -0.000001 -0.000004 -0.000002 -0.000004 0.000003 -0.000000 -0.000000 0.000000 0.039230 -0.011402 0.008390 -0.000001 -0.000000 0.000006 0.000002 -0.000003 -0.000002 -0.000001 0.000004 -0.000004 0.000001 -0.000002 0.000003 0.043417 0.002450 0.002889 -0.000001 -0.000000 -0.000000 -0.000003 -0.000004 -0.000002 0.000001 -0.000000 -0.000001 -0.000005 -0.000001 -0.000005 -0.016662 0.078957 0.057696 -16.911224 8.133222 -33.935747 -0.176972 -0.020537 -0.095144 11.804373 -16.683815 42.567798 -54.011381 6.374010 57.203490 -0.000001 0.000003 0.000003 -0.021773 -0.038278 0.012988 -0.000001 -0.000003 0.000002 -0.000001 -0.000003 0.000000 0.000001 -0.000000 -0.000001 0.000002 -0.000005 -0.000000 0.009113 -0.002381 -0.024211 -0.000002 -0.000002 0.000002 -0.000001 -0.000008 -0.000003 0.000002 -0.000002 -0.000006 -0.032828 -0.025095 0.012286 0.000000 -0.000000 0.000001 0.000002 0.000003 0.000002 -0.000000 0.000000 -0.000002 -0.000003 0.000003 -0.000006 -0.039192 -0.011488 0.008390 -0.000004 -0.000000 0.000005 -0.000002 0.000005 -0.000003 0.000001 0.000001 0.000002 -0.000002 0.000001 -0.000001 -0.043421 0.002443 0.002845 -0.000000 -0.000003 0.000002 -0.000005 0.000007 -0.000001 -0.000003 -0.000005 0.000002 -0.000004 0.000000 -0.000003 -0.000000 -0.000000 -0.000000 -1.457461 -0.345476 3.411115 -35.452049 0.786113 12.410180 13.880757 -1.077528 10.941117 0.000000 -0.000002 0.000002 -0.000000 0.000002 0.000002 0.000002 0.000000 0.000002 -0.038000 -0.085200 0.016200 -0.000001 -0.000003 0.000003 -0.000000 -0.000000 -0.000000 -1.436194 -0.343988 4.645442 24.438892 -0.688013 -7.665893 72.284828 1.951762 -20.108181 -0.000003 0.000000 -0.000000 0.000002 0.000000 0.000000 0.000007 -0.000001 0.000000 0.038000 -0.085200 0.016200 -0.000003 -0.000000 -0.000000 
-0.003166 0.276109 -0.016938 12.034204 60.788738 -10.649384 -0.000000 -0.000001 0.000000 0.000000 0.000000 0.000000 0.000000 0.000000 -0.000000 0.000001 -0.000001 0.000000 0.000924 0.155148 0.009274 21.667061 -0.023138 8.288425 0.019937 0.078966 0.057518 5.320889 6.082735 34.091708 0.177025 -0.020466 -0.095062 6.065394 14.038107 -50.145825 -39.793102 8.036150 -86.070759 -0.000002 -0.000002 0.000002 0.021770 -0.038291 0.012954 -0.000001 -0.000000 -0.000002 -0.000001 0.000002 0.000005 -0.000000 0.000001 0.000005 -0.000000 -0.000000 -0.000003 -0.009090 -0.002348 -0.024223 0.000002 -0.000001 0.000002 0.000000 -0.000000 0.000001 -0.000001 -0.000000 -0.000006 0.032823 -0.025104 0.012281 -0.000003 -0.000000 0.000004 -0.000000 -0.000001 -0.000004 -0.000002 -0.000004 0.000003 -0.000000 -0.000000 0.000000 0.039230 -0.011402 0.008390 -0.000001 -0.000000 0.000006 0.000002 -0.000003 -0.000002 -0.000001 0.000004 -0.000004 0.000001 -0.000002 0.000003 0.043417 0.002450 0.002889 -0.000001 -0.000000 -0.000000 -0.000003 -0.000004 -0.000002 0.000001 -0.000000 -0.000001 -0.000005 -0.000001 -0.000005 -0.016662 0.078957 0.057696 -16.911224 8.133222 -33.935747 -0.176972 -0.020537 -0.095144 11.804373 -16.683815 42.567798 -54.011381 6.374010 57.203490 -0.000001 0.000003 0.000003 -0.021773 -0.038278 0.012988 -0.000001 -0.000003 0.000002 -0.000001 -0.000003 0.000000 0.000001 -0.000000 -0.000001 0.000002 -0.000005 -0.000000 0.009113 -0.002381 -0.024211 -0.000002 -0.000002 0.000002 -0.000001 -0.000008 -0.000003 0.000002 -0.000002 -0.000006 -0.032828 -0.025095 0.012286 0.000000 -0.000000 0.000001 0.000002 0.000003 0.000002 -0.000000 0.000000 -0.000002 -0.000003 0.000003 -0.000006 -0.039192 -0.011488 0.008390 -0.000004 -0.000000 0.000005 -0.000002 0.000005 -0.000003 0.000001 0.000001 0.000002 -0.000002 0.000001 -0.000001 -0.043421 0.002443 0.002845 -0.000000 -0.000003 0.000002 -0.000005 0.000007 -0.000001 -0.000003 -0.000005 0.000002 -0.000004 0.000000 -0.000003 -0.000000 -0.000000 -0.000000 -1.457461 -0.345476 3.411115 -35.452049 0.786113 12.410180 13.880757 -1.077528 10.941117 0.000000 -0.000002 0.000002 -0.000000 0.000002 0.000002 0.000002 0.000000 0.000002 -0.038000 -0.085200 0.016200 -0.000001 -0.000003 0.000003 -0.000000 -0.000000 -0.000000 -1.436194 -0.343988 4.645442 24.438892 -0.688013 -7.665893 72.284828 1.951762 -20.108181 -0.000003 0.000000 -0.000000 0.000002 0.000000 0.000000 0.000007 -0.000001 0.000000 0.038000 -0.085200 0.016200 -0.000003 -0.000000 -0.000000 
-0.002587 0.264651 -0.016080 11.629124 64.562179 -9.979791 -0.000002 0.000002 -0.000000 -0.000000 0.000001 0.000000 0.000000 -0.000002 0.000000 -0.000000 -0.000004 0.000000 0.000924 0.155148 0.009274 21.511008 -0.023230 -5.082974 0.019937 0.078966 0.057518 33.591379 10.330371 28.067139 0.177024 -0.020465 -0.095062 8.495581 13.840758 -46.919319 -5.829370 -7.896548 -10.230563 -0.000002 -0.000000 0.000005 0.021770 -0.038291 0.012954 0.000000 -0.000001 0.000001 0.000003 -0.000001 -0.000000 0.000002 -0.000003 0.000005 0.000001 0.000003 -0.000000 -0.009090 -0.002348 -0.024223 0.000005 -0.000001 -0.000003 0.000001 -0.000000 0.000005 0.000001 0.000003 0.000001 0.032823 -0.025104 0.012281 0.000004 0.000001 0.000002 -0.000001 -0.000002 -0.000002 -0.000002 0.000001 0.000005 0.000002 -0.000001 0.000003 0.039230 -0.011402 0.008390 0.000003 -0.000000 0.000008 0.000002 0.000003 0.000003 0.000002 0.000002 0.000003 0.000004 -0.000003 0.000004 0.043417 0.002450 0.002889 0.000003 -0.000000 -0.000002 -0.000002 -0.000002 -0.000004 0.000003 0.000004 -0.000003 0.000000 -0.000001 -0.000002 -0.016662 0.078957 0.057696 24.613446 5.196111 -37.965733 -0.176972 -0.020537 -0.095144 -42.584628 -15.379378 57.654317 -24.638340 14.702122 32.591856 0.000001 0.000002 0.000003 -0.021773 -0.038278 0.012988 -0.000001 -0.000000 0.000000 -0.000002 0.000004 -0.000003 -0.000001 -0.000002 -0.000005 0.000000 0.000000 0.000008 0.009114 -0.002381 -0.024211 0.000002 0.000000 0.000003 -0.000002 -0.000003 0.000005 0.000003 -0.000002 0.000001 -0.032828 -0.025095 0.012286 0.000000 -0.000001 0.000001 0.000001 0.000002 0.000001 0.000001 -0.000001 -0.000002 -0.000002 0.000002 -0.000003 -0.039192 -0.011488 0.008390 -0.000001 0.000002 -0.000000 0.000001 0.000001 -0.000002 0.000000 -0.000000 -0.000000 -0.000001 -0.000003 -0.000001 -0.043421 0.002443 0.002844 -0.000001 0.000002 -0.000001 -0.000004 0.000005 -0.000001 0.000001 -0.000001 0.000002 0.000003 -0.000002 0.000002 -0.000000 0.000000 -0.000000 -1.601174 -0.481056 4.962431 -38.197734 0.012268 2.440852 4.856674 -0.931547 9.444266 -0.000005 -0.000000 0.000000 0.000000 0.000001 0.000002 0.000000 -0.000003 0.000001 -0.038000 -0.085200 0.016200 -0.000002 0.000001 0.000002 -0.000000 -0.000000 -0.000000 -1.581299 -0.479127 6.196795 23.420510 -0.574433 -6.195078 79.882757 0.667748 -6.751143 0.000000 0.000001 -0.000001 -0.000002 0.000000 -0.000001 0.000010 -0.000001 0.000001 0.038000 -0.085200 0.016200 -0.000001 -0.000000 -0.000002 
-0.002559 0.264304 -0.016086 11.172284 64.140585 -9.616345 -0.000001 -0.000001 -0.000000 -0.000001 -0.000001 -0.000000 -0.000000 0.000001 0.000000 0.000000 0.000003 0.000000 0.000924 0.155148 0.009274 21.618580 -0.023347 -5.216073 0.019937 0.078966 0.057518 33.424224 10.258381 28.014670 0.177024 -0.020465 -0.095062 8.696308 13.918536 -47.055427 -5.550695 -7.651049 -10.015116 -0.000001 -0.000002 0.000005 0.021770 -0.038291 0.012954 0.000002 -0.000000 -0.000004 0.000000 -0.000003 0.000001 -0.000003 0.000003 0.000009 -0.000000 -0.000004 -0.000003 -0.009090 -0.002348 -0.024224 0.000003 -0.000005 0.000002 -0.000002 0.000003 0.000003 -0.000001 0.000002 -0.000006 0.032823 -0.025104 0.012281 -0.000000 -0.000000 -0.000005 0.000000 -0.000001 -0.000004 -0.000003 0.000004 0.000004 -0.000000 0.000002 -0.000004 0.039230 -0.011402 0.008390 0.000000 0.000001 -0.000001 0.000003 0.000000 0.000001 -0.000005 0.000003 0.000003 0.000002 -0.000001 0.000006 0.043417 0.002449 0.002889 0.000000 0.000002 -0.000003 -0.000000 -0.000003 0.000001 -0.000000 -0.000003 0.000001 -0.000002 -0.000000 -0.000003 -0.016662 0.078957 0.057696 24.150740 5.112131 -37.816684 -0.176972 -0.020537 -0.095144 -41.398682 -14.983449 57.481991 -24.265437 14.824827 31.922849 -0.000001 0.000002 -0.000002 -0.021773 -0.038278 0.012988 0.000001 -0.000000 -0.000003 -0.000001 0.000001 -0.000001 -0.000001 0.000001 -0.000001 0.000001 -0.000002 0.000003 0.009113 -0.002381 -0.024212 -0.000000 -0.000006 -0.000000 -0.000003 0.000002 0.000002 0.000000 0.000003 0.000001 -0.032828 -0.025095 0.012286 0.000003 0.000000 -0.000003 0.000002 -0.000002 -0.000003 0.000001 0.000000 -0.000000 -0.000000 0.000000 -0.000000 -0.039192 -0.011488 0.008390 -0.000002 0.000002 0.000001 -0.000002 0.000004 -0.000005 -0.000002 0.000000 -0.000000 -0.000000 0.000004 -0.000000 -0.043421 0.002443 0.002844 -0.000002 0.000000 0.000000 -0.000003 0.000000 -0.000001 0.000001 -0.000001 -0.000000 -0.000001 0.000001 0.000001 -0.000000 0.000000 -0.000000 -1.602870 -0.492303 5.099028 -37.780119 0.011530 2.418846 4.615120 -0.922147 9.348120 -0.000003 0.000002 0.000001 -0.000001 -0.000002 -0.000002 -0.000002 0.000002 0.000002 -0.038000 -0.085200 0.016200 0.000002 0.000000 -0.000000 -0.000000 0.000000 -0.000000 -1.583304 -0.490357 6.333383 23.301125 -0.562806 -6.048182 79.723525 0.678005 -6.855398 -0.000005 0.000001 -0.000001 0.000000 0.000001 0.000000 0.000003 -0.000000 -0.000001 0.038000 -0.085200 0.016200 -0.000003 -0.000000 -0.000000 
